<?xml version="1.0" encoding="UTF-8" standalone="no"?>
<svg
   xmlns:dc="http://purl.org/dc/elements/1.1/"
   xmlns:cc="http://creativecommons.org/ns#"
   xmlns:rdf="http://www.w3.org/1999/02/22-rdf-syntax-ns#"
   xmlns:svg="http://www.w3.org/2000/svg"
   xmlns="http://www.w3.org/2000/svg"
   viewBox="0 0 350 90"
   height="90"
   width="350"
   xml:space="preserve"
>
<g>
<path style="fill:#6f0732;fill-opacity:1;fill-rule:nonzero;stroke:none;stroke-width:0.21977068" d="m 13.544647,17.494531 c 0,2.607134 0.05275,2.980519 1.586733,3.106679 l 0.846128,0.07302 c 0.158235,0.09708 0.10549,0.546141 -0.05274,0.620857 -1.507632,-0.04731 -2.406489,-0.07467 -3.463597,-0.07467 -1.059284,0 -1.984529,0.02753 -3.6767523,0.07467 -0.158235,-0.07467 -0.21098,-0.495357 0,-0.620857 l 0.953794,-0.07302 C 11.243652,20.475116 11.375515,20.101665 11.375515,17.494531 V 6.3831514 c 0,-0.770967 0,-0.794043 -0.791174,-0.794043 H 9.1294527 c -1.1384174,0 -2.5932884,0.04731 -3.2526005,0.619753 C 5.2417039,6.754113 4.9779791,7.301787 4.6878818,7.924177 4.4747097,8.074336 4.1054949,7.947257 4.000005,7.750778 4.4219647,6.6321404 4.8197442,5.0414504 5.0043516,4.0480814 c 0.079117,-0.05143 0.4219597,-0.07566 0.5010772,0 0.1603776,0.79162 1.0307355,0.768313 2.2482542,0.768313 h 10.709432 c 1.426306,0 1.665851,-0.0473 2.061438,-0.695343 0.131862,-0.04961 0.424168,-0.02571 0.476913,0.07302 C 20.70916,5.2157904 20.524553,7.228884 20.60367,7.973033 20.49818,8.17325 20.049848,8.17325 19.917986,8.022973 19.836726,7.400582 19.652069,6.4819304 19.256481,6.2089754 18.647722,5.7865874 17.643359,5.5892214 16.188488,5.5892214 h -1.876847 c -0.793367,0 -0.766994,0.02308 -0.766994,0.84392 V 17.494644"/>
<path style="fill:#6f0732;fill-opacity:1;fill-rule:nonzero;stroke:none;stroke-width:0.21977068" d="m 23.669472,10.235059 c 0,-2.24055 -0.04615,-2.562525 -1.397742,-2.714381 l -0.367006,-0.04285 c -0.138456,-0.08588 -0.0923,-0.474919 0.04615,-0.539317 0.986759,0.04401 1.764747,0.06445 2.703179,0.06445 h 4.309693 c 1.465881,0 2.817471,0 3.092173,-0.06445 0.138456,0.367451 0.276911,1.919702 0.367023,2.865578 -0.09016,0.12873 -0.457118,0.171866 -0.569201,0.04302 C 31.506498,8.833967 31.299919,8.081247 30.108756,7.799506 29.627459,7.692203 28.895622,7.672424 27.886875,7.672424 h -1.650473 c -0.687893,0 -0.687893,0.04137 -0.687893,0.861061 v 4.307939 c 0,0.602611 0.06807,0.602611 0.756017,0.602611 h 1.329618 c 0.962595,0 1.672444,-0.04286 1.947163,-0.12873 0.274719,-0.08835 0.435146,-0.216255 0.55163,-0.753808 l 0.182398,-0.883264 c 0.114226,-0.128731 0.503286,-0.128731 0.59559,0.02308 0,0.515137 -0.0923,1.356419 -0.0923,2.174625 0,0.774263 0.0923,1.594217 0.0923,2.068922 -0.0923,0.149499 -0.481298,0.149499 -0.59559,0.01978 l -0.206579,-0.839733 c -0.0923,-0.387906 -0.25273,-0.709865 -0.709864,-0.817118 -0.320855,-0.08851 -0.870292,-0.107468 -1.764748,-0.107468 h -1.329618 c -0.687877,0 -0.756017,0.01978 -0.756017,0.579535 v 3.036577 c 0,1.144352 0.06807,1.876617 0.435146,2.243195 0.274719,0.257362 0.756017,0.49361 2.773512,0.49361 1.764764,0 2.42846,-0.08587 2.933938,-0.321958 0.413175,-0.217145 1.032928,-0.97008 1.628501,-2.090465 0.158235,-0.107303 0.479106,-0.04104 0.57141,0.152136 -0.158235,0.753594 -0.734046,2.412193 -1.028527,2.992618 -2.065856,-0.04137 -4.105322,-0.06264 -6.144789,-0.06264 h -2.063647 c -0.984583,0 -1.762572,0.02126 -3.116354,0.06264 -0.138455,-0.06264 -0.182415,-0.408773 -0.04401,-0.534933 l 0.756017,-0.06708 c 1.305438,-0.107303 1.419713,-0.430761 1.419713,-2.692861 v -7.754829"/> <path style="fill:#6f0732;fill-opacity:1;fill-rule:nonzero;stroke:none;stroke-width:0.21977068" d="m 49.841969,20.747132 c 0.160378,0.128731 0.138456,0.431849 -0.02192,0.539317 -1.054899,-0.04549 -1.949372,-0.0661 -2.889996,-0.0661 -1.030719,0 -2.129578,0.0206 -2.95591,0.0661 -0.136313,-0.130544 -0.160378,-0.410537 -0.04401,-0.539317 l 0.663713,-0.06445 c 0.52745,-0.04285 0.777988,-0.128566 0.777988,-0.280636 0,-0.126094 -0.04615,-0.345051 -0.503269,-0.946773 -0.984584,-1.315327 -2.268034,-3.103612 -3.276781,-4.328614 -0.617561,0.731408 -2.314186,3.080306 -3.23063,4.588598 -0.184607,0.300432 -0.298899,0.538213 -0.298899,0.686789 0,0.131368 0.206596,0.237781 0.665906,0.280636 l 0.617561,0.06445 c 0.160377,0.128731 0.114225,0.431849 -0.02192,0.539317 -0.826349,-0.04549 -1.696641,-0.0661 -2.474629,-0.0661 -0.780181,0 -1.628501,0.0206 -2.36253,0.0661 -0.204387,-0.08587 -0.228567,-0.410537 -0.06807,-0.539317 l 0.573602,-0.06445 c 1.237298,-0.128566 2.039466,-1.0549 2.727343,-1.917708 0.274719,-0.345925 1.854876,-2.239024 3.116354,-3.962697 0.160378,-0.214705 0.206579,-0.366577 0.206579,-0.430959 0,-0.06445 -0.0923,-0.260214 -0.276911,-0.495374 L 37.328332,9.243625 C 36.572315,8.230494 36.137169,7.801281 35.335017,7.63052 L 34.600972,7.477724 c -0.114226,-0.128731 -0.09016,-0.474919 0.04615,-0.539317 1.079079,0.04549 1.835096,0.06445 2.659236,0.06445 0.894456,0 1.925191,-0.01978 2.588888,-0.06445 0.162685,0.06445 0.184607,0.386357 0.04615,0.539317 l -0.641725,0.04286 c -0.410966,0.02192 -0.687877,0.150159 -0.687877,0.280653 0,0.193178 0.230759,0.56063 0.687877,1.18302 0.758209,1.037091 2.107606,2.974596 2.933938,3.944658 0.595574,-0.690959 2.65922,-3.748842 3.070203,-4.395413 0.184607,-0.280636 0.320854,-0.562163 0.320854,-0.709848 0,-0.108128 -0.345035,-0.238671 -0.756,-0.281757 l -0.59559,-0.06412 c -0.136313,-0.15296 -0.136313,-0.453392 0.04615,-0.539317 0.802168,0.04549 1.534005,0.06445 2.426268,0.06445 0.850513,0 1.492254,-0.01978 2.199911,-0.06445 0.162685,0.107468 0.186799,0.410537 0.04829,0.539317 l -0.549421,0.04286 c -0.690086,0.06445 -1.514226,0.709865 -2.452641,1.831124 -0.894472,1.076435 -1.87904,2.368473 -2.977898,3.81324 -0.138456,0.193179 -0.23076,0.346139 -0.23076,0.410537 0,0.06181 0.02423,0.213617 0.298899,0.559525 l 3.872355,5.125278 c 0.78018,1.015555 1.37577,1.35642 2.085618,1.422351 l 0.802169,0.06445"/>
<path style="fill:#6f0732;fill-opacity:1;fill-rule:nonzero;stroke:none;stroke-width:0.21977068" d="m 53.186874,14.306971 c -0.182399,0.493611 -0.160378,0.514923 0.481297,0.514923 h 2.819664 c 0.663713,0 0.709865,-0.08571 0.503269,-0.667883 L 55.753806,10.645597 C 55.571391,10.126059 55.364812,9.546744 55.226357,9.28742 h -0.04615 c -0.06807,0.106314 -0.296691,0.624131 -0.549438,1.269598 z m 4.538275,1.915961 c -0.160377,-0.473831 -0.252747,-0.538213 -0.940624,-0.538213 h -3.459196 c -0.573601,0 -0.712057,0.06445 -0.872484,0.517774 l -0.802169,2.2621 c -0.342842,0.970062 -0.503269,1.551147 -0.503269,1.788928 0,0.255813 0.114226,0.386357 0.663713,0.42768 l 0.758209,0.06593 c 0.158235,0.108292 0.158235,0.450755 -0.04615,0.539317 -0.597782,-0.04549 -1.307647,-0.04549 -2.384518,-0.0661 -0.756016,0 -1.580156,0.04467 -2.19991,0.0661 -0.136312,-0.08851 -0.182398,-0.430976 -0.04615,-0.539317 l 0.756016,-0.06593 c 0.55163,-0.04137 1.0549,-0.279104 1.37577,-1.053367 0.413158,-0.992479 1.0549,-2.39088 2.017495,-4.80594 l 2.336157,-5.814467 c 0.320871,-0.776884 0.459326,-1.186317 0.388994,-1.529604 0.55163,-0.152961 0.940624,-0.539317 1.193355,-0.81997 0.136313,0 0.296691,0.04467 0.342842,0.195816 0.298883,0.947662 0.665906,1.937504 1.008748,2.886033 l 3.140518,8.657855 c 0.663713,1.855964 0.960403,2.176176 1.947179,2.283644 l 0.619753,0.06593 c 0.158235,0.108292 0.114226,0.450755 0,0.539317 -0.940624,-0.04549 -1.742792,-0.0661 -2.773511,-0.0661 -1.101051,0 -1.971343,0.04467 -2.635056,0.0661 -0.184608,-0.08851 -0.206579,-0.430976 -0.04615,-0.539317 l 0.663713,-0.06593 c 0.481298,-0.04137 0.802168,-0.171867 0.802168,-0.386357 0,-0.237798 -0.114226,-0.625028 -0.298899,-1.141715 l -1.006539,-2.930197"/>
<path style="fill:#6f0732;fill-opacity:1;fill-rule:nonzero;stroke:none;stroke-width:0.21977068" d="m 67.806031,21.565338 c -1.922999,0 -3.140534,-0.560629 -3.571279,-0.796663 -0.276911,-0.473831 -0.575794,-2.001903 -0.621946,-3.015035 0.116534,-0.152795 0.45931,-0.193178 0.549422,-0.06676 0.345034,1.098859 1.283466,3.210636 3.940494,3.210636 1.927383,0 2.865798,-1.184784 2.865798,-2.476822 0,-0.948519 -0.204386,-2.004523 -1.879039,-3.014803 l -2.17573,-1.334893 c -1.147203,-0.712716 -2.476805,-1.940355 -2.476805,-3.707097 0,-2.044735 1.696625,-3.70335 4.674523,-3.70335 0.712057,0 1.536197,0.128731 2.13177,0.278016 0.296691,0.08587 0.619754,0.12873 0.802169,0.12873 0.206579,0.517791 0.415366,1.723887 0.415366,2.629561 -0.0923,0.128731 -0.459326,0.193178 -0.57581,0.06445 -0.29669,-1.034454 -0.916444,-2.433729 -3.116337,-2.433729 -2.24387,0 -2.72736,1.399275 -2.72736,2.390873 0,1.248968 1.101051,2.154863 1.949372,2.648457 l 1.832887,1.077316 c 1.441685,0.841282 2.863607,2.090465 2.863607,4.135206 0,2.37199 -1.90322,3.985987 -4.881102,3.985987"/>
<path style="fill:#6f0732;fill-opacity:1;fill-rule:nonzero;stroke:none;stroke-width:0.21977068" d="m 86.411802,21.618528 c -2.219673,0 -3.619624,-0.645466 -4.125085,-0.918422 -0.314278,-0.547014 -0.65712,-2.31112 -0.714266,-3.480294 0.136313,-0.174273 0.529658,-0.22593 0.635148,-0.07302 0.399972,1.26522 1.481244,3.699186 4.551446,3.699186 2.217481,0 3.300961,-1.364117 3.300961,-2.85614 0,-1.094672 -0.237352,-2.311993 -2.166944,-3.479404 l -2.509787,-1.542791 c -1.325217,-0.819755 -2.854821,-2.234639 -2.854821,-4.27344 0,-2.3609956 1.953772,-4.2751936 5.393172,-4.2751936 0.819756,0 1.771358,0.150159 2.459234,0.324382 0.340651,0.09873 0.712058,0.14851 0.925246,0.14851 C 91.54125,5.4885784 91.783003,6.879282 91.783003,7.92144 91.67537,8.074236 91.251152,8.147139 91.121499,7.9971 90.776448,6.806382 90.060006,5.1914964 87.523847,5.1914964 c -2.593289,0 -3.144919,1.6148856 -3.144919,2.7583476 0,1.440597 1.268072,2.485386 2.243854,3.056119 l 2.1186,1.244781 c 1.665851,0.965893 3.305346,2.408039 3.305346,4.770568 0,2.735272 -2.195509,4.59717 -5.634926,4.59717"/>
<path style="fill:#6f0732;fill-opacity:1;fill-rule:nonzero;stroke:none;stroke-width:0.21977068" d="m 108.29218,14.71464 c 0,-3.554121 -1.67025,-7.38714 -6.05029,-7.38714 -2.382313,0 -5.47668,1.528071 -5.47668,6.24808 0,3.186669 1.650477,7.321875 6.16676,7.321875 2.74933,0 5.36021,-1.937504 5.36021,-6.182815 M 94.472996,14.262352 c 0,-4.307945 3.439417,-7.604499 8.160094,-7.604499 5.29207,0 7.9513,3.598749 7.9513,7.388904 0,4.353438 -3.52732,7.518581 -7.9513,7.518581 -5.085507,0 -8.160094,-3.425341 -8.160094,-7.302986"/>
<path style="fill:#6f0732;fill-opacity:1;fill-rule:nonzero;stroke:none;stroke-width:0.21977068" d="m 124.12886,12.409685 c 0,-1.334876 -0.0461,-3.811691 -0.43515,-4.457157 -0.16038,-0.260214 -0.5736,-0.410538 -1.1472,-0.453393 l -0.57141,-0.04285 c -0.13846,-0.150323 -0.0923,-0.43185 0.0461,-0.517774 0.87029,0.04401 1.71642,0.06445 2.61308,0.06445 0.96039,0 1.58015,-0.01978 2.40429,-0.06445 0.1846,0.107467 0.16037,0.388994 0.0461,0.517774 l -0.55162,0.04285 c -0.57141,0.04286 -1.00655,0.236034 -1.14501,0.515154 -0.32087,0.712485 -0.32087,3.1893 -0.32087,4.395396 v 2.436389 c 0,1.874853 -0.32085,3.853679 -1.60213,5.14659 -0.98676,1.012045 -2.6834,1.572674 -4.37783,1.572674 -1.58235,0 -3.16249,-0.280653 -4.28553,-1.184784 -1.21313,-0.948536 -1.78673,-2.519446 -1.78673,-5.083741 v -5.084829 c 0,-2.239018 -0.0483,-2.605595 -1.37576,-2.712849 l -0.5736,-0.04285 c -0.134,-0.08835 -0.0923,-0.453376 0.0483,-0.517774 1.1428,0.04401 1.92519,0.06445 2.84163,0.06445 0.93842,0 1.69443,-0.01978 2.81746,-0.06445 0.13631,0.06445 0.18241,0.429426 0.0461,0.517774 l -0.55161,0.04285 c -1.32962,0.107303 -1.37358,0.473831 -1.37358,2.712849 v 4.652979 c 0,3.47085 1.14501,5.753389 4.65036,5.753389 3.32293,0 4.58441,-2.456828 4.58441,-5.73206 v -2.476607"/>
<path style="fill:#6f0732;fill-opacity:1;fill-rule:nonzero;stroke:none;stroke-width:0.21977068" d="m 135.79428,17.989888 c 0,2.2621 0.0461,2.583845 1.37577,2.691313 l 0.73184,0.06593 c 0.13845,0.08588 0.0923,0.473171 -0.0462,0.539317 -1.30543,-0.04549 -2.08561,-0.0661 -3.00206,-0.0661 -0.91865,0 -1.71861,0.0206 -3.18448,0.0661 -0.13631,-0.0661 -0.18241,-0.430976 0,-0.539317 l 0.82415,-0.06593 c 1.30763,-0.107468 1.4219,-0.429213 1.4219,-2.691313 V 8.36196 c 0,-0.669646 0,-0.691173 -0.68788,-0.691173 h -1.26147 c -0.98459,0 -2.24607,0.04302 -2.81748,0.538427 -0.55161,0.474705 -0.78237,0.948536 -1.03072,1.484995 -0.1846,0.131368 -0.50767,0.02423 -0.59778,-0.147521 0.36483,-0.970062 0.71206,-2.350662 0.8725,-3.2108496 0.0659,-0.04285 0.36701,-0.06445 0.43294,0 0.1406,0.6885356 0.89447,0.6670096 1.94937,0.6670096 h 9.28092 c 1.2373,0 1.4439,-0.04022 1.78893,-0.6026106 0.11423,-0.04286 0.36482,-0.02192 0.41097,0.06445 -0.25273,0.8843686 -0.41097,2.6286776 -0.34504,3.2750276 -0.0923,0.171849 -0.48129,0.171849 -0.59338,0.04038 -0.0704,-0.53646 -0.23076,-1.332249 -0.5736,-1.57092 -0.52526,-0.366578 -1.39993,-0.538427 -2.65703,-0.538427 h -1.6285 c -0.68787,0 -0.66371,0.02192 -0.66371,0.731605 v 9.587496"/>
<path style="fill:#6f0732;fill-opacity:1;fill-rule:nonzero;stroke:none;stroke-width:0.21977068" d="m 148.44429,14.263901 c -1.10105,0 -1.1494,0.04302 -1.1494,0.688537 v 3.03745 c 0,2.2621 0.11423,2.562532 1.39774,2.692846 l 0.6681,0.0628 c 0.13401,0.08752 0.0902,0.476451 -0.0483,0.539086 -1.23513,-0.04137 -2.0175,-0.06264 -2.90978,-0.06264 -0.98457,0 -1.76475,0.04286 -2.65922,0.06264 -0.134,-0.06264 -0.18241,-0.408773 -0.044,-0.539086 l 0.3868,-0.0628 c 1.28566,-0.216255 1.33181,-0.430746 1.33181,-2.692846 v -7.754829 c 0,-2.262093 -0.16037,-2.62867 -1.35159,-2.714381 l -0.59778,-0.04137 c -0.13631,-0.08752 -0.0923,-0.476452 0.0483,-0.538213 1.12083,0.01978 1.90101,0.06181 2.88558,0.06181 0.89228,0 1.67465,-0.01978 2.65702,-0.06181 0.1406,0.06181 0.18461,0.450756 0.0483,0.538213 l -0.43736,0.04137 c -1.32741,0.128731 -1.37575,0.452288 -1.37575,2.714381 v 2.477695 c 0,0.66701 0.0483,0.688537 1.14939,0.688537 h 6.55137 c 1.10106,0 1.14721,-0.02192 1.14721,-0.688537 v -2.477695 c 0,-2.262093 -0.0462,-2.585601 -1.39995,-2.714381 l -0.43075,-0.04137 c -0.1406,-0.08752 -0.0923,-0.476452 0.0417,-0.538213 1.05711,0.04137 1.8351,0.06181 2.77352,0.06181 0.89447,0 1.67465,-0.01978 2.70536,-0.06181 0.13631,0.06181 0.18461,0.450756 0.044,0.538213 l -0.4813,0.04137 c -1.3274,0.128731 -1.37355,0.452288 -1.37355,2.714381 v 7.754829 c 0,2.2621 0.0462,2.540989 1.37355,2.692846 l 0.55163,0.0628 c 0.13846,0.08752 0.0902,0.476451 -0.044,0.539086 -1.10104,-0.04137 -1.88122,-0.06264 -2.77569,-0.06264 -0.93842,0 -1.76477,0.02126 -2.77352,0.06264 -0.134,-0.06264 -0.18239,-0.408773 -0.0417,-0.539086 l 0.43075,-0.0628 c 1.39995,-0.216255 1.39995,-0.430746 1.39995,-2.692846 v -3.03745 c 0,-0.645467 -0.0462,-0.688537 -1.14721,-0.688537 h -6.55137"/>
<path style="fill:#6f0732;fill-opacity:1;fill-rule:nonzero;stroke:none;stroke-width:0.21977068" d="m 163.88756,10.235059 c 0,-2.24055 -0.044,-2.562525 -1.39553,-2.714381 l -0.36702,-0.04285 c -0.1406,-0.08588 -0.0923,-0.474919 0.044,-0.539317 0.98456,0.04401 1.76695,0.06445 2.70537,0.06445 h 4.3075 c 1.46588,0 2.81966,0 3.09438,-0.06445 0.13631,0.367451 0.27691,1.919702 0.36701,2.865578 -0.0902,0.12873 -0.45712,0.171866 -0.5714,0.04302 -0.34505,-1.013142 -0.55163,-1.765862 -1.74279,-2.047603 -0.48349,-0.107303 -1.21533,-0.127082 -2.22407,-0.127082 h -1.65047 c -0.68569,0 -0.68569,0.04137 -0.68569,0.861061 v 4.307939 c 0,0.602611 0.0681,0.602611 0.75381,0.602611 h 1.33181 c 0.9604,0 1.67246,-0.04286 1.94716,-0.12873 0.27472,-0.08835 0.43515,-0.216255 0.55163,-0.753808 l 0.18242,-0.883264 c 0.11208,-0.128731 0.50327,-0.128731 0.59338,0.02308 0,0.515137 -0.0902,1.356419 -0.0902,2.174625 0,0.774263 0.0902,1.594217 0.0902,2.068922 -0.0902,0.149499 -0.4813,0.149499 -0.59338,0.01978 l -0.2066,-0.839733 c -0.0923,-0.387906 -0.25273,-0.709865 -0.70985,-0.817118 -0.32306,-0.08851 -0.87469,-0.107468 -1.76476,-0.107468 h -1.33181 c -0.68569,0 -0.75381,0.01978 -0.75381,0.579535 v 3.036577 c 0,1.144352 0.0681,1.876617 0.43515,2.243195 0.2747,0.257362 0.756,0.49361 2.77349,0.49361 1.76257,0 2.42627,-0.08587 2.93394,-0.321958 0.40877,-0.217145 1.02853,-0.97008 1.62631,-2.090465 0.15823,-0.107303 0.4813,-0.04104 0.57141,0.152136 -0.16038,0.753594 -0.73184,2.412193 -1.02853,2.992618 -2.06585,-0.04137 -4.10313,-0.06264 -6.14259,-0.06264 h -2.06365 c -0.98678,0 -1.76477,0.02126 -3.11636,0.06264 -0.13845,-0.06264 -0.18239,-0.408773 -0.0483,-0.534933 l 0.7604,-0.06708 c 1.30325,-0.107303 1.41752,-0.430761 1.41752,-2.692861 v -7.754829"/>
<path style="fill:#6f0732;fill-opacity:1;fill-rule:nonzero;stroke:none;stroke-width:0.21977068" d="m 179.15285,13.336909 c 0,0.386126 0,0.624137 0.0659,0.712485 0.0681,0.06181 0.41316,0.107303 1.58454,0.107303 0.82414,0 1.69443,-0.08752 2.35814,-0.560629 0.61755,-0.452288 1.145,-1.206113 1.145,-2.671533 0,-1.702337 -1.12083,-3.318097 -3.66578,-3.318097 -1.4219,0 -1.48783,0.08588 -1.48783,0.688536 z m -1.88125,-3.08207 c 0,-2.045625 -0.0681,-2.410653 -1.00875,-2.517906 l -0.73403,-0.08752 c -0.16038,-0.107468 -0.16038,-0.453376 0.0242,-0.539087 1.28345,-0.107468 2.8658,-0.171866 5.10967,-0.171866 1.42191,0 2.7735,0.107468 3.82839,0.646571 1.09886,0.538213 1.90103,1.508275 1.90103,3.015028 0,2.048252 -1.71861,3.167764 -2.86581,3.597866 -0.11423,0.130379 0,0.345034 0.11867,0.518433 1.8307,2.778127 3.04603,4.50091 4.602,5.730296 0.39119,0.321975 0.96479,0.560646 1.58235,0.601079 0.11423,0.04549 0.13846,0.217128 0.0264,0.303069 -0.21098,0.06412 -0.57579,0.108951 -1.01094,0.108951 -1.94937,0 -3.11635,-0.538443 -4.74266,-2.717239 -0.59776,-0.798213 -1.5362,-2.282539 -2.24825,-3.253491 -0.34285,-0.472282 -0.70985,-0.686789 -1.6263,-0.686789 -1.03073,0 -1.07467,0.02192 -1.07467,0.472067 v 2.715492 c 0,2.262101 0.044,2.519447 1.37575,2.691313 l 0.4791,0.06593 c 0.13632,0.108292 0.0902,0.474919 -0.0462,0.539317 -1.03072,-0.04302 -1.8087,-0.06445 -2.72515,-0.06445 -0.9648,0 -1.79113,0.02126 -2.86801,0.06445 -0.13631,-0.06445 -0.18241,-0.386357 -0.0461,-0.539317 l 0.5736,-0.06593 c 1.33181,-0.147686 1.37576,-0.429212 1.37576,-2.691313 v -7.735049"/>
<path style="fill:#6f0732;fill-opacity:1;fill-rule:nonzero;stroke:none;stroke-width:0.21977068" d="m 203.46388,17.558913 c 0,0.645466 0,3.209762 0.0681,3.767754 -0.044,0.131368 -0.1824,0.238671 -0.43515,0.238671 -0.2747,-0.364814 -0.93841,-1.118638 -2.93394,-3.251942 l -5.31624,-5.689204 c -0.61536,-0.667883 -2.17354,-2.431988 -2.65703,-2.905819 h -0.044 c -0.0923,0.257577 -0.11423,0.752934 -0.11423,1.399291 v 4.695835 c 0,1.013149 0.0219,3.814335 0.41097,4.459802 0.13846,0.237797 0.59778,0.366577 1.16919,0.4079 l 0.71206,0.06593 c 0.134,0.171866 0.11422,0.431849 -0.0506,0.539317 -1.02634,-0.04302 -1.8307,-0.0661 -2.67681,-0.0661 -0.96479,0 -1.58235,0.02308 -2.38452,0.0661 -0.16268,-0.107468 -0.1824,-0.41207 -0.0483,-0.539317 l 0.61975,-0.06593 c 0.52745,-0.0628 0.89666,-0.193179 1.00875,-0.429213 0.32306,-0.777115 0.29669,-3.402265 0.29669,-4.438489 V 9.586962 c 0,-0.599974 -0.0219,-1.053366 -0.50108,-1.549597 -0.32306,-0.302196 -0.87248,-0.452289 -1.42411,-0.516687 l -0.389,-0.04285 c -0.13631,-0.128731 -0.13631,-0.453393 0.0483,-0.539317 0.9604,0.06445 2.17573,0.06445 2.5889,0.06445 0.36702,0 0.75381,-0.01978 1.05271,-0.06445 0.45712,1.098859 3.1647,3.940487 3.9185,4.739788 l 2.22408,2.346937 c 1.58235,1.659488 2.70539,2.865798 3.78226,3.900259 h 0.0417 c 0.0944,-0.107468 0.0944,-0.453376 0.0944,-0.905895 v -4.60991 c 0,-1.012918 -0.0219,-3.811691 -0.45933,-4.459795 -0.13401,-0.193178 -0.50327,-0.321958 -1.41971,-0.429212 l -0.39121,-0.04285 c -0.15823,-0.128731 -0.13631,-0.474919 0.0483,-0.539317 1.05269,0.04401 1.83289,0.06445 2.70097,0.06445 0.98677,0 1.58456,-0.01978 2.36254,-0.06445 0.1824,0.105654 0.1824,0.410537 0.0462,0.539317 l -0.32307,0.04285 c -0.73404,0.107303 -1.19116,0.280653 -1.28127,0.452288 -0.38899,0.775351 -0.34504,3.445114 -0.34504,4.436719 v 5.149228"/>
<path style="fill:#6f0732;fill-opacity:1;fill-rule:nonzero;stroke:none;stroke-width:0.21977068" d="m 228.75289,11.055903 c 0,-1.54191 -0.0527,-4.39805 -0.50107,-5.1448196 -0.18682,-0.298899 -0.65931,-0.472298 -1.32303,-0.521961 l -0.6615,-0.04895 c -0.15824,-0.173399 -0.10549,-0.498011 0.0527,-0.596677 1.00654,0.04994 1.98453,0.07566 3.01744,0.07566 1.10765,0 1.82191,-0.02571 2.77352,-0.07566 0.21098,0.122797 0.1846,0.446354 0.0527,0.596677 l -0.63075,0.04895 c -0.66369,0.04961 -1.16698,0.272955 -1.32521,0.596463 -0.37141,0.8208436 -0.37141,3.6796146 -0.37141,5.0703176 v 2.808884 c 0,2.160796 -0.36922,4.448609 -1.85048,5.940633 -1.13621,1.167642 -3.09436,1.811344 -5.05033,1.811344 -1.82408,0 -3.64818,-0.320211 -4.94263,-1.363243 -1.40214,-1.093568 -2.06365,-2.910204 -2.06365,-5.86941 V 8.520855 c 0,-2.5866956 -0.0527,-3.0073366 -1.58675,-3.1317326 l -0.6615,-0.04895 c -0.15823,-0.101369 -0.10549,-0.521087 0.0528,-0.596677 1.323,0.04994 2.22188,0.07566 3.27897,0.07566 1.08346,0 1.95816,-0.02571 3.25481,-0.07566 0.15609,0.07566 0.20877,0.495358 0.0506,0.596677 l -0.63294,0.04895 c -1.53399,0.124445 -1.58894,0.545037 -1.58894,3.1317326 v 5.367008 c 0,4.003129 1.32302,6.637081 5.36901,6.637081 3.83279,0 5.28768,-2.831301 5.28768,-6.611137 v -2.857904"/>
<path style="fill:#6f0732;fill-opacity:1;fill-rule:nonzero;stroke:none;stroke-width:0.21977068" d="m 246.68618,17.558913 c 0,0.645466 0,3.209762 0.0681,3.767754 -0.0461,0.131368 -0.18242,0.238671 -0.43515,0.238671 -0.27472,-0.364814 -0.93841,-1.118638 -2.93394,-3.251942 l -5.31625,-5.689204 c -0.61756,-0.667883 -2.17573,-2.431988 -2.65702,-2.905819 h -0.0462 c -0.0923,0.257577 -0.11423,0.752934 -0.11423,1.399291 v 4.695835 c 0,1.013149 0.0219,3.814335 0.41317,4.459802 0.13632,0.237797 0.59558,0.366577 1.16699,0.4079 l 0.70986,0.06593 c 0.13846,0.171866 0.11653,0.431849 -0.0461,0.539317 -1.02853,-0.04302 -1.8307,-0.0661 -2.67902,-0.0661 -0.96259,0 -1.58235,0.02308 -2.3845,0.0661 -0.16038,-0.107468 -0.18241,-0.41207 -0.0462,-0.539317 l 0.61975,-0.06593 c 0.52524,-0.0628 0.89446,-0.193179 1.00875,-0.429213 0.32086,-0.777115 0.29669,-3.402265 0.29669,-4.438489 V 9.586962 c 0,-0.599974 -0.0219,-1.053366 -0.50328,-1.549597 -0.32086,-0.302196 -0.8703,-0.452289 -1.42191,-0.516687 l -0.38899,-0.04285 c -0.13632,-0.128731 -0.13632,-0.453393 0.0461,-0.539317 0.96259,0.06445 2.17573,0.06445 2.58889,0.06445 0.36702,0 0.75601,-0.01978 1.0549,-0.06445 0.45713,1.098859 3.1625,3.940487 3.91852,4.739788 l 2.22407,2.346937 c 1.58016,1.659488 2.70537,2.865798 3.78005,3.900259 h 0.0462 c 0.0923,-0.107468 0.0923,-0.453376 0.0923,-0.905895 v -4.60991 c 0,-1.012918 -0.0219,-3.811691 -0.45931,-4.459795 -0.13631,-0.193178 -0.50548,-0.321958 -1.42192,-0.429212 l -0.389,-0.04285 c -0.16038,-0.128731 -0.134,-0.474919 0.0483,-0.539317 1.0527,0.04401 1.83288,0.06445 2.70098,0.06445 0.98678,0 1.58235,-0.01978 2.36253,-0.06445 0.18242,0.105654 0.18242,0.410537 0.044,0.539317 l -0.32087,0.04285 c -0.73183,0.107303 -1.19114,0.280653 -1.28126,0.452288 -0.38899,0.775351 -0.34503,3.445114 -0.34503,4.436719 v 5.149228"/>
<path style="fill:#6f0732;fill-opacity:1;fill-rule:nonzero;stroke:none;stroke-width:0.21977068" d="m 252.30131,10.279019 c 0,-2.28451 -0.0462,-2.64845 -1.39774,-2.756577 l -0.5736,-0.04467 c -0.13631,-0.08587 -0.0902,-0.474919 0.0462,-0.539317 1.14501,0.04549 1.92519,0.06445 2.88779,0.06445 0.91644,0 1.69664,-0.01978 2.84163,-0.06445 0.13846,0.06445 0.18242,0.453393 0.0462,0.539317 l -0.57361,0.04467 c -1.35159,0.108127 -1.39774,0.472067 -1.39774,2.756577 v 7.6678 c 0,2.283626 0.0462,2.586696 1.39774,2.735915 l 0.57361,0.06445 c 0.13631,0.08587 0.0923,0.473171 -0.0462,0.539317 -1.14499,-0.04549 -1.92519,-0.0661 -2.84163,-0.0661 -0.9626,0 -1.74278,0.0206 -2.88779,0.0661 -0.13631,-0.0661 -0.1824,-0.410537 -0.0462,-0.539317 l 0.5736,-0.06445 c 1.35159,-0.14917 1.39774,-0.452289 1.39774,-2.735915 v -7.6678"/>
<path style="fill:#6f0732;fill-opacity:1;fill-rule:nonzero;stroke:none;stroke-width:0.21977068" d="m 259.40431,9.28742 c -0.52525,-1.206112 -0.8681,-1.659488 -1.85706,-1.766742 l -0.41097,-0.04285 c -0.16038,-0.128731 -0.13846,-0.43185 0.044,-0.539317 0.66371,0.04401 1.39995,0.06445 2.38452,0.06445 1.00874,0 1.8131,-0.01978 2.7713,-0.06445 0.16268,0.08588 0.20879,0.410537 0.0483,0.539317 l -0.34505,0.04285 c -0.86808,0.107303 -1.05269,0.236034 -1.07687,0.409433 0.0483,0.214721 0.43515,1.377962 1.14721,3.015901 1.0527,2.498134 2.10979,4.974741 3.2526,7.431766 0.70986,-1.420817 1.67465,-3.641595 2.19991,-4.783309 0.6659,-1.463887 1.74277,-3.90026 2.13397,-4.824839 0.1824,-0.452289 0.20439,-0.688322 0.20439,-0.839519 0,-0.151807 -0.23076,-0.323722 -1.02853,-0.409433 l -0.41536,-0.04285 c -0.16038,-0.128731 -0.11208,-0.453393 0.0462,-0.539317 0.64172,0.04401 1.51202,0.06445 2.3845,0.06445 0.75602,0 1.46807,-0.01978 2.22188,-0.06445 0.16269,0.08588 0.16269,0.431849 0.044,0.539317 l -0.68568,0.04285 c -0.54942,0.04285 -0.89447,0.300432 -1.19117,0.752935 -0.63953,1.013807 -1.53619,2.75811 -2.56472,4.955828 l -1.2417,2.648456 c -0.91644,1.983211 -1.99112,4.481345 -2.38231,5.623043 -0.0659,0.04467 -0.15823,0.06709 -0.25054,0.06709 -0.11653,0 -0.23075,-0.02242 -0.34284,-0.06709 -0.25494,-0.905664 -0.66371,-1.959905 -1.05711,-2.865585 L 259.4044,9.28742"/>
<path style="fill:#6f0732;fill-opacity:1;fill-rule:nonzero;stroke:none;stroke-width:0.21977068" d="m 275.53768,10.235059 c 0,-2.24055 -0.0462,-2.562525 -1.39774,-2.714381 l -0.36702,-0.04285 c -0.13632,-0.08588 -0.0923,-0.474919 0.0483,-0.539317 0.98238,0.04401 1.76257,0.06445 2.70318,0.06445 h 4.30752 c 1.46586,0 2.81745,0 3.09217,-0.06445 0.13846,0.367451 0.27691,1.919702 0.36701,2.865578 -0.0902,0.12873 -0.45712,0.171866 -0.5692,0.04302 -0.34725,-1.013142 -0.55163,-1.765862 -1.74278,-2.047603 -0.48351,-0.107303 -1.21534,-0.127082 -2.22409,-0.127082 h -1.65047 c -0.68788,0 -0.68788,0.04137 -0.68788,0.861061 v 4.307939 c 0,0.602611 0.0704,0.602611 0.756,0.602611 h 1.33181 c 0.9604,0 1.67027,-0.04286 1.94497,-0.12873 0.27472,-0.08835 0.43736,-0.216255 0.55163,-0.753808 l 0.18242,-0.883264 c 0.11422,-0.128731 0.50546,-0.128731 0.59557,0.02308 0,0.515137 -0.0902,1.356419 -0.0902,2.174625 0,0.774263 0.0902,1.594217 0.0902,2.068922 -0.0902,0.149499 -0.4813,0.149499 -0.59557,0.01978 l -0.20439,-0.839733 c -0.0923,-0.387906 -0.25494,-0.709865 -0.71206,-0.817118 -0.32087,-0.08851 -0.8725,-0.107468 -1.76257,-0.107468 h -1.33181 c -0.68568,0 -0.756,0.01978 -0.756,0.579535 v 3.036577 c 0,1.144352 0.0704,1.876617 0.43734,2.243195 0.27472,0.257362 0.75381,0.49361 2.7713,0.49361 1.76477,0 2.42848,-0.08587 2.93394,-0.321958 0.41098,-0.217145 1.03074,-0.97008 1.6285,-2.090465 0.15824,-0.107303 0.47911,-0.04104 0.56922,0.152136 -0.15824,0.753594 -0.73184,2.412193 -1.02634,2.992618 -2.06584,-0.04137 -4.10532,-0.06264 -6.14259,-0.06264 h -2.06365 c -0.98676,0 -1.76696,0.02126 -3.11855,0.06264 -0.134,-0.06264 -0.18239,-0.408773 -0.044,-0.534933 l 0.756,-0.06708 c 1.30544,-0.107303 1.41973,-0.430761 1.41973,-2.692861 v -7.754829"/>
<path style="fill:#6f0732;fill-opacity:1;fill-rule:nonzero;stroke:none;stroke-width:0.21977068" d="m 290.80075,13.336909 c 0,0.386126 0,0.624137 0.0681,0.712485 0.0681,0.06181 0.41317,0.107303 1.58235,0.107303 0.82414,0 1.69662,-0.08752 2.36033,-0.560629 0.61757,-0.452288 1.14502,-1.206113 1.14502,-2.671533 0,-1.702337 -1.12304,-3.318097 -3.66578,-3.318097 -1.42192,0 -1.49004,0.08588 -1.49004,0.688536 z m -1.87903,-3.08207 c 0,-2.045625 -0.0681,-2.410653 -1.00875,-2.517906 l -0.73184,-0.08752 c -0.16268,-0.107468 -0.16268,-0.453376 0.0219,-0.539087 1.28347,-0.107468 2.86361,-0.171866 5.10967,-0.171866 1.42192,0 2.77351,0.107468 3.82841,0.646571 1.09885,0.538213 1.90101,1.508275 1.90101,3.015028 0,2.048252 -1.71861,3.167764 -2.86581,3.597866 -0.11423,0.130379 0,0.345034 0.11653,0.518433 1.83289,2.778127 3.04822,4.50091 4.60419,5.730296 0.39121,0.321975 0.9626,0.560646 1.58235,0.601079 0.11208,0.04549 0.13846,0.217128 0.0219,0.303069 -0.20658,0.06412 -0.57139,0.108951 -1.00873,0.108951 -1.94718,0 -3.11635,-0.538443 -4.74266,-2.717239 -0.59338,-0.798213 -1.53399,-2.282539 -2.24385,-3.253491 -0.34504,-0.472282 -0.71206,-0.686789 -1.6285,-0.686789 -1.03072,0 -1.07687,0.02192 -1.07687,0.472067 v 2.715492 c 0,2.262101 0.0462,2.519447 1.37575,2.691313 l 0.4813,0.06593 c 0.13631,0.108292 0.0902,0.474919 -0.0462,0.539317 -1.03071,-0.04302 -1.81089,-0.06445 -2.72734,-0.06445 -0.96259,0 -1.78894,0.02126 -2.86581,0.06445 -0.13632,-0.06445 -0.18242,-0.386357 -0.0462,-0.539317 l 0.57361,-0.06593 c 1.32961,-0.147686 1.37577,-0.429212 1.37577,-2.691313 v -7.735049"/>
<path style="fill:#6f0732;fill-opacity:1;fill-rule:nonzero;stroke:none;stroke-width:0.21977068" d="m 304.52542,21.565338 c -1.92519,0 -3.13613,-0.560629 -3.57347,-0.796663 -0.27691,-0.473831 -0.57139,-2.001903 -0.61754,-3.015035 0.11422,-0.152795 0.45931,-0.193178 0.54942,-0.06676 0.34063,1.098859 1.28345,3.210636 3.94048,3.210636 1.9274,0 2.86581,-1.184784 2.86581,-2.476822 0,-0.948519 -0.20658,-2.004523 -1.88123,-3.014803 l -2.17354,-1.334893 c -1.1472,-0.712716 -2.4768,-1.940355 -2.4768,-3.707097 0,-2.044735 1.69662,-3.70335 4.67671,-3.70335 0.70766,0 1.5318,0.128731 2.12958,0.278016 0.29888,0.08587 0.61975,0.12873 0.80215,0.12873 0.2066,0.517791 0.41318,1.723887 0.41318,2.629561 -0.0923,0.128731 -0.45933,0.193178 -0.5736,0.06445 -0.29669,-1.034454 -0.91645,-2.433729 -3.11636,-2.433729 -2.24825,0 -2.72734,1.399275 -2.72734,2.390873 0,1.248968 1.10105,2.154863 1.94716,2.648457 l 1.83289,1.077316 c 1.44608,0.841282 2.86581,2.090465 2.86581,4.135206 0,2.37199 -1.90102,3.985987 -4.88331,3.985987"/>
<path style="fill:#6f0732;fill-opacity:1;fill-rule:nonzero;stroke:none;stroke-width:0.21977068" d="m 313.53382,10.279019 c 0,-2.28451 -0.0462,-2.64845 -1.39774,-2.756577 l -0.5736,-0.04467 c -0.13632,-0.08587 -0.0902,-0.474919 0.0462,-0.539317 1.14501,0.04549 1.92519,0.06445 2.88778,0.06445 0.91645,0 1.69665,-0.01978 2.83945,-0.06445 0.1406,0.06445 0.1846,0.453393 0.0483,0.539317 l -0.5736,0.04467 c -1.35159,0.108127 -1.39774,0.472067 -1.39774,2.756577 v 7.6678 c 0,2.283626 0.0462,2.586696 1.39774,2.735915 l 0.5736,0.06445 c 0.13631,0.08587 0.0923,0.473171 -0.0483,0.539317 -1.1428,-0.04549 -1.923,-0.0661 -2.83945,-0.0661 -0.96259,0 -1.74277,0.0206 -2.88778,0.0661 -0.13632,-0.0661 -0.1824,-0.410537 -0.0462,-0.539317 l 0.5736,-0.06445 c 1.35159,-0.14917 1.39774,-0.452289 1.39774,-2.735915 v -7.6678"/>
<path style="fill:#6f0732;fill-opacity:1;fill-rule:nonzero;stroke:none;stroke-width:0.21977068" d="m 326.32009,17.989888 c 0,2.2621 0.0483,2.583845 1.37575,2.691313 l 0.73184,0.06593 c 0.1406,0.08588 0.0923,0.473171 -0.044,0.539317 -1.30765,-0.04549 -2.08343,-0.0661 -2.99987,-0.0661 -0.91865,0 -1.72301,0.0206 -3.18888,0.0661 -0.134,-0.0661 -0.18461,-0.430976 0,-0.539317 l 0.82414,-0.06593 c 1.30763,-0.107468 1.42412,-0.429213 1.42412,-2.691313 V 8.36196 c 0,-0.669646 0,-0.691173 -0.69009,-0.691173 h -1.26148 c -0.98237,0 -2.24385,0.04302 -2.81526,0.538427 -0.55163,0.474705 -0.78239,0.948536 -1.03293,1.484995 -0.18461,0.131368 -0.50327,0.02423 -0.59338,-0.147521 0.36483,-0.970062 0.70987,-2.350662 0.8681,-3.2108496 0.0681,-0.04285 0.36702,-0.06445 0.43515,0 0.14059,0.6885356 0.89447,0.6670096 1.94716,0.6670096 h 9.28311 c 1.23513,0 1.4439,-0.04022 1.78674,-0.6026106 0.11653,-0.04286 0.36483,-0.02192 0.41317,0.06445 -0.25053,0.8843686 -0.41317,2.6286776 -0.34284,3.2750276 -0.0923,0.171849 -0.4813,0.171849 -0.59557,0.04038 -0.0704,-0.53646 -0.22857,-1.332249 -0.57581,-1.57092 -0.52305,-0.366578 -1.39553,-0.538427 -2.65703,-0.538427 h -1.6285 c -0.68348,0 -0.6637,0.02192 -0.6637,0.731605 v 9.587496"/>
<path style="fill:#6f0732;fill-opacity:1;fill-rule:nonzero;stroke:none;stroke-width:0.21977068" d="m 340.98757,17.946819 c 0,2.305169 0.13632,2.651094 1.37577,2.735915 l 0.8703,0.0628 c 0.13845,0.130378 0.0902,0.476451 -0.0462,0.539086 -1.42192,-0.04137 -2.19991,-0.06264 -3.11635,-0.06264 -0.9626,0 -1.78893,0.02126 -3.00206,0.06264 -0.13846,-0.06264 -0.18461,-0.408773 -0.0462,-0.539086 l 0.70986,-0.0628 c 1.3296,-0.130379 1.37575,-0.430746 1.37575,-2.735915 V 16.84796 c 0,-1.18457 -0.0704,-1.463673 -0.73402,-2.669769 L 335.67124,9.222148 C 334.89106,7.799567 334.54821,7.692314 333.86032,7.585076 L 333.2186,7.477773 c -0.13846,-0.150323 -0.11423,-0.450755 0.0462,-0.539317 0.73403,0.04401 1.55817,0.06445 2.65703,0.06445 1.05489,0 1.87903,-0.01978 2.45264,-0.06445 0.20658,0.06445 0.20658,0.408774 0.0704,0.539317 l -0.2989,0.04286 c -0.80215,0.107303 -0.9626,0.21449 -0.9626,0.386357 0,0.216254 0.59559,1.444767 0.70987,1.658615 0.84832,1.596616 1.69443,3.296554 2.5889,4.784176 0.71206,-1.141714 1.46806,-2.39088 2.15595,-3.639848 0.64173,-1.120379 1.49005,-2.586689 1.49005,-2.844266 0,-0.130544 -0.41318,-0.280636 -0.9626,-0.345034 l -0.41317,-0.04286 c -0.16038,-0.150323 -0.13846,-0.450755 0.0462,-0.539317 0.82414,0.04401 1.49004,0.06445 2.19991,0.06445 0.70985,0 1.35159,-0.01978 2.13177,-0.06445 0.18242,0.107468 0.20439,0.408774 0.044,0.539317 l -0.64174,0.107303 c -1.19115,0.194926 -1.87904,1.551131 -3.02404,3.403791 l -1.44389,2.349575 c -1.01096,1.633775 -1.07689,1.831354 -1.07689,3.488206 v 1.120171"/>
<path style="fill:#9fa3a5;fill-opacity:1;fill-rule:nonzero;stroke:none;stroke-width:0.21977068" d="M 4,31.399192 H 345.00938 V 29.544877 H 4 Z"/>
<path style="fill:#171a1e;fill-opacity:1;fill-rule:nonzero;stroke:none;stroke-width:0.21977068" d="m 98.338757,54.90192 c -4.927253,0 -7.243631,-3.500947 -7.243631,-7.199259 0,-3.660501 2.435054,-7.20188 7.243631,-7.20188 1.839483,0 3.659183,0.692063 5.085513,2.094634 l -1.18677,1.090288 c -1.09007,-1.029186 -2.494403,-1.522796 -3.898743,-1.522796 -3.720712,0 -5.500855,2.729107 -5.500855,5.596455 0.05934,2.811537 1.760364,5.520865 5.500855,5.520865 1.40434,0 2.907573,-0.571838 3.955873,-1.601914 l 1.20875,1.186333 c -1.4461,1.38477 -3.24602,2.037274 -5.164623,2.037274"/>
<path style="fill:#171a1e;fill-opacity:1;fill-rule:nonzero;stroke:none;stroke-width:0.21977068" d="m 109.35587,46.137685 c -1.98013,0 -3.48336,1.46631 -3.48336,3.621815 0,2.116178 1.48564,3.579851 3.46358,3.579851 2.01749,0 3.48116,-1.463673 3.48116,-3.579851 0,-2.155505 -1.50323,-3.621815 -3.46138,-3.621815 z m -0.0198,-1.503232 c 2.9669,0 5.10307,2.096382 5.10307,5.125047 0,3.026243 -2.17573,5.102862 -5.10307,5.102862 -2.92954,0 -5.06571,-2.076619 -5.06571,-5.102862 0,-3.028665 2.15595,-5.125047 5.06571,-5.125047"/>
<path style="fill:#171a1e;fill-opacity:1;fill-rule:nonzero;stroke:none;stroke-width:0.21977068" d="m 116.39513,54.627202 h 1.60193 V 40.775648 h -1.60193 z"/>
<path style="fill:#171a1e;fill-opacity:1;fill-rule:nonzero;stroke:none;stroke-width:0.21977068" d="m 120.72681,54.627202 h 1.60193 V 40.775648 h -1.60193 z"/>
<path style="fill:#171a1e;fill-opacity:1;fill-rule:nonzero;stroke:none;stroke-width:0.21977068" d="m 129.43192,46.098126 c -1.70322,0 -3.16689,0.94941 -3.48336,2.850206 h 6.76673 c -0.0615,-1.87838 -1.36477,-2.850206 -3.28337,-2.850206 z m 0.0374,8.764236 c -3.02624,0 -5.14482,-1.977937 -5.14482,-5.161985 0,-2.949763 2.11858,-5.065924 5.06571,-5.065924 2.7713,0 4.92725,1.525418 4.92725,4.846158 0,0.256687 -0.0198,0.535576 -0.0396,0.810295 h -8.3293 c 0.17801,1.90322 1.70102,3.070861 3.56248,3.070861 1.08786,0 2.47242,-0.418234 3.10536,-1.208749 l 1.10764,0.969188 h -0.0198 c -1.02853,1.188971 -2.71196,1.740156 -4.23498,1.740156"/>
<path style="fill:#171a1e;fill-opacity:1;fill-rule:nonzero;stroke:none;stroke-width:0.21977068" d="m 140.62485,52.884425 c 2.07902,0 3.52291,-1.503231 3.52291,-3.403814 0,-2.215733 -1.70321,-3.360068 -3.54269,-3.360068 -1.74059,0 -3.58007,1.065217 -3.58007,3.342053 0.0593,2.255061 1.64169,3.421829 3.59985,3.421829 z m -0.0396,5.898635 c 1.68124,0 3.4438,-0.594914 3.4438,-2.316163 0,-1.582349 -1.60213,-2.1755 -3.42402,-2.1755 -3.06581,0 -5.16242,-1.762341 -5.16242,-4.828801 0,-3.223608 2.67022,-4.828143 5.16242,-4.828143 0.91204,0 2.03727,0.237781 2.76911,0.752045 l 1.0505,-1.305867 1.16698,0.949624 -1.12962,1.287636 c 0.79337,0.867869 1.26807,1.72036 1.26807,3.144705 0,1.642115 -0.83073,3.345349 -2.74933,3.975421 1.9186,0.554712 2.68999,1.584772 2.68999,3.0091 0,2.650006 -2.51197,3.817648 -5.10526,3.817648 -2.94713,0 -5.08549,-1.562355 -5.00418,-4.195434 h 1.54279 c 0,1.90322 1.70102,2.713729 3.48117,2.713729"/>
<path style="fill:#171a1e;fill-opacity:1;fill-rule:nonzero;stroke:none;stroke-width:0.21977068" d="m 152.13643,46.098126 c -1.70321,0 -3.16689,0.94941 -3.48116,2.850206 h 6.76673 c -0.0615,-1.87838 -1.36478,-2.850206 -3.28557,-2.850206 z m 0.0396,8.764236 c -3.02843,0 -5.14482,-1.977937 -5.14482,-5.161985 0,-2.949763 2.11639,-5.065924 5.06571,-5.065924 2.76911,0 4.92506,1.525418 4.92506,4.846158 0,0.256687 -0.0198,0.535576 -0.0374,0.810295 h -8.3293 c 0.17801,1.90322 1.70102,3.070861 3.56028,3.070861 1.08787,0 2.47461,-0.418234 3.10755,-1.208749 l 1.10765,0.969188 h -0.0198 c -1.03072,1.188971 -2.70977,1.740156 -4.23498,1.740156"/>
<path style="fill:#171a1e;fill-opacity:1;fill-rule:nonzero;stroke:none;stroke-width:0.21977068" d="m 167.78191,46.137685 c -1.98013,0 -3.48117,1.46631 -3.48117,3.621815 0,2.116178 1.48345,3.579851 3.46139,3.579851 2.01749,0 3.48336,-1.463673 3.48336,-3.579851 0,-2.155505 -1.50543,-3.621815 -3.46358,-3.621815 z m -0.0198,-1.503232 c 2.96909,0 5.10526,2.096382 5.10526,5.125047 0,3.026243 -2.17573,5.102862 -5.10526,5.102862 -2.92735,0 -5.06571,-2.076619 -5.06571,-5.102862 0,-3.028665 2.15814,-5.125047 5.06571,-5.125047"/>
<path style="fill:#171a1e;fill-opacity:1;fill-rule:nonzero;stroke:none;stroke-width:0.21977068" d="m 175.61234,46.395245 h -1.89882 v -1.404549 h 1.89882 v -0.791619 c 0,-2.234623 1.26588,-3.541166 3.30315,-3.541166 0.77359,0 1.52301,0.216255 2.21748,0.712502 l -0.67249,1.20786 c -0.53405,-0.317574 -0.94941,-0.514923 -1.50324,-0.514923 -1.05049,0 -1.70321,0.652274 -1.70321,2.135727 v 0.791619 h 3.04821 v 1.404549 h -3.04821 v 8.231957 h -1.64169 v -8.231957"/>
<path style="fill:#171a1e;fill-opacity:1;fill-rule:nonzero;stroke:none;stroke-width:0.21977068" d="m 190.88201,42.042698 c -1.75817,0 -3.6394,0.75117 -3.6394,2.314399 0,1.525648 1.7208,1.998589 3.75807,2.317037 2.75153,0.41296 5.50086,1.067871 5.50086,4.056319 0,3.123161 -3.00646,4.171467 -5.63712,4.171467 -2.31638,0 -4.74924,-0.828541 -5.81953,-3.184263 l 1.36698,-0.850727 c 0.92963,1.703218 2.57132,2.452641 4.47014,2.452641 1.68344,0 3.93828,-0.553607 3.93828,-2.610661 0,-1.70147 -1.92079,-2.195954 -3.99762,-2.511765 -2.68999,-0.415581 -5.28109,-1.011385 -5.28109,-3.896749 0,-2.732403 2.9669,-3.799615 5.30306,-3.799615 1.99772,0 4.01521,0.51339 5.26131,2.550664 l -1.30544,0.810295 c -0.79117,-1.205223 -2.35593,-1.79839 -3.9185,-1.819042"/>
<path style="fill:#171a1e;fill-opacity:1;fill-rule:nonzero;stroke:none;stroke-width:0.21977068" d="m 202.87049,54.862362 c -2.79108,0 -5.10747,-1.87927 -5.10747,-5.125064 0,-3.24337 2.25705,-5.102845 5.10747,-5.102845 1.345,0 2.49001,0.454926 3.54051,1.463673 l -1.0505,1.070492 c -0.6703,-0.692706 -1.58016,-0.991605 -2.45264,-0.991605 -1.93838,0 -3.52073,1.346974 -3.52073,3.560285 0,2.297274 1.60213,3.582273 3.50095,3.582273 0.92963,0 1.86145,-0.314063 2.55154,-1.025889 l 1.07028,1.085228 -0.0198,-0.01714 c -1.03072,1.045669 -2.27463,1.500595 -3.61963,1.500595"/>
<path style="fill:#171a1e;fill-opacity:1;fill-rule:nonzero;stroke:none;stroke-width:0.21977068" d="m 209.73393,44.872234 v 9.754968 h -1.6241 v -9.754968 z m -0.79336,-4.055428 c 0.51645,0 1.08786,0.356259 1.08786,1.066107 0,0.712502 -0.57141,1.031164 -1.08786,1.031164 -0.55383,0 -1.06809,-0.335804 -1.06809,-1.048306 0,-0.692706 0.51426,-1.048965 1.06809,-1.048965"/>
<path style="fill:#171a1e;fill-opacity:1;fill-rule:nonzero;stroke:none;stroke-width:0.21977068" d="m 216.71386,46.098126 c -1.70103,0 -3.1647,0.94941 -3.48338,2.850206 h 6.76675 c -0.0593,-1.87838 -1.36478,-2.850206 -3.28337,-2.850206 z m 0.0395,8.764236 c -3.02624,0 -5.14484,-1.977937 -5.14484,-5.161985 0,-2.949763 2.1186,-5.065924 5.06573,-5.065924 2.7713,0 4.92725,1.525418 4.92725,4.846158 0,0.256687 -0.0198,0.535576 -0.0417,0.810295 h -8.32932 c 0.17801,1.90322 1.70323,3.070861 3.56249,3.070861 1.09006,0 2.47242,-0.418234 3.10755,-1.208749 l 1.10546,0.969188 h -0.0176 c -1.02853,1.188971 -2.71196,1.740156 -4.23498,1.740156"/>
<path style="fill:#171a1e;fill-opacity:1;fill-rule:nonzero;stroke:none;stroke-width:0.21977068" d="m 225.00141,44.872234 0.0791,1.523011 c 0.87029,-1.266308 1.97572,-1.760792 3.30315,-1.760792 2.43286,0 4.15586,1.621677 4.15586,4.57144 v 5.421309 h -1.64388 v -5.401744 c 0,-1.96058 -0.94941,-3.065587 -2.82845,-3.065587 -1.78014,0 -2.94713,1.483452 -2.94713,3.221844 v 5.245487 h -1.60433 v -9.754968 h 1.48566"/>
<path style="fill:#171a1e;fill-opacity:1;fill-rule:nonzero;stroke:none;stroke-width:0.21977068" d="m 239.33924,54.862362 c -2.78889,0 -5.10308,-1.87927 -5.10308,-5.125064 0,-3.24337 2.25485,-5.102845 5.10308,-5.102845 1.3472,0 2.49441,0.454926 3.54271,1.463673 l -1.0483,1.070492 c -0.67471,-0.692706 -1.58456,-0.991605 -2.45264,-0.991605 -1.94059,0 -3.52294,1.346974 -3.52294,3.560285 0,2.297274 1.60434,3.582273 3.50316,3.582273 0.92963,0 1.85926,-0.314063 2.55153,-1.025889 l 1.07028,1.085228 -0.0219,-0.01714 c -1.02853,1.045669 -2.27463,1.500595 -3.62183,1.500595"/>
<path style="fill:#171a1e;fill-opacity:1;fill-rule:nonzero;stroke:none;stroke-width:0.21977068" d="m 248.83554,46.098126 c -1.70323,0 -3.16691,0.94941 -3.48338,2.850206 h 6.76675 c -0.0615,-1.87838 -1.36477,-2.850206 -3.28337,-2.850206 z m 0.0374,8.764236 c -3.02625,0 -5.14483,-1.977937 -5.14483,-5.161985 0,-2.949763 2.11858,-5.065924 5.06571,-5.065924 2.77132,0 4.92727,1.525418 4.92727,4.846158 0,0.256687 -0.0198,0.535576 -0.0396,0.810295 h -8.32932 c 0.17801,1.90322 1.70103,3.070861 3.56249,3.070861 1.08787,0 2.47242,-0.418234 3.10536,-1.208749 l 1.10765,0.969188 h -0.0198 c -1.02853,1.188971 -2.70977,1.740156 -4.23499,1.740156"/>
<path style="fill:#171a1e;fill-opacity:1;fill-rule:nonzero;stroke:none;stroke-width:0.21977068" d="m 255.24185,53.774711 c 0,-0.692063 0.51426,-1.02589 1.0483,-1.02589 0.53404,0 1.08787,0.373385 1.08787,1.067872 0,0.176036 -0.51427,1.384769 -0.89007,2.650204 h -1.06809 l 0.49448,-1.782335 0.0198,-0.03939 c -0.39558,-0.0989 -0.69227,-0.395802 -0.69227,-0.870506"/>
<path style="fill:#171a1e;fill-opacity:1;fill-rule:nonzero;stroke:none;stroke-width:0.21977068" d="m 72.309133,64.512482 v 1.582135 h -8.012851 v 4.331894 h 7.676602 v 1.601914 h -7.676602 v 4.692539 h 8.32932 v 1.639709 H 62.575478 V 64.512482 h 9.733655"/>
<path style="fill:#171a1e;fill-opacity:1;fill-rule:nonzero;stroke:none;stroke-width:0.21977068" d="m 76.183679,68.607469 0.07912,1.524561 c 0.870291,-1.26522 1.977936,-1.762342 3.303153,-1.762342 2.435054,0 4.155858,1.621677 4.155858,4.568802 v 5.422183 h -1.641687 v -5.39998 c 0,-1.96058 -0.951601,-3.067994 -2.828432,-3.067994 -1.782351,0 -2.949334,1.483453 -2.949334,3.226014 v 5.24196 h -1.60432 v -9.753204 h 1.485644"/>
<path style="fill:#171a1e;fill-opacity:1;fill-rule:nonzero;stroke:none;stroke-width:0.21977068" d="m 90.620422,76.619661 c 2.079025,0 3.522918,-1.504996 3.522918,-3.402282 0,-2.217266 -1.701025,-3.364238 -3.540506,-3.364238 -1.740584,0 -3.580064,1.067854 -3.580064,3.342926 0.0572,2.258589 1.641687,3.423594 3.597652,3.423594 z m -0.03742,5.89425 c 1.681245,0 3.441609,-0.59053 3.441609,-2.311779 0,-1.584756 -1.602129,-2.175499 -3.42183,-2.175499 -3.067993,0 -5.164606,-1.760595 -5.164606,-4.830566 0,-3.224481 2.672406,-4.826379 5.164606,-4.826379 0.909851,0 2.037274,0.237781 2.769111,0.753808 l 1.048306,-1.30763 1.166982,0.951157 -1.127423,1.283466 c 0.793366,0.870506 1.268071,1.72125 1.268071,3.145578 0,1.643879 -0.830733,3.34469 -2.751524,3.979822 1.920791,0.553822 2.689994,1.582135 2.689994,3.003826 0,2.652643 -2.511979,3.820285 -5.103076,3.820285 -2.949317,0 -5.083296,-1.562355 -5.006371,-4.19367 h 1.542791 c 0,1.897286 1.701025,2.707581 3.48336,2.707581"/>
<path style="fill:#171a1e;fill-opacity:1;fill-rule:nonzero;stroke:none;stroke-width:0.21977068" d="m 99.266197,68.607469 v 9.753204 h -1.62191 v -9.753204 z m -0.79118,-4.055428 c 0.51427,0 1.08787,0.356259 1.08787,1.067871 0,0.712502 -0.5736,1.0294 -1.08787,1.0294 -0.553819,0 -1.070274,-0.3391 -1.070274,-1.050943 0,-0.690069 0.516455,-1.046328 1.070274,-1.046328"/>
<path style="fill:#171a1e;fill-opacity:1;fill-rule:nonzero;stroke:none;stroke-width:0.21977068" d="m 103.43745,68.607469 0.0813,1.524561 c 0.8681,-1.26522 1.97575,-1.762342 3.30096,-1.762342 2.43506,0 4.15586,1.621677 4.15586,4.568802 v 5.422183 h -1.64169 v -5.39998 c 0,-1.96058 -0.9516,-3.067994 -2.82844,-3.067994 -1.78234,0 -2.94932,1.483453 -2.94932,3.226014 v 5.24196 h -1.60213 v -9.753204 h 1.48345"/>
<path style="fill:#171a1e;fill-opacity:1;fill-rule:nonzero;stroke:none;stroke-width:0.21977068" d="m 117.77749,69.833361 c -1.70323,0 -3.16691,0.951157 -3.48117,2.848443 h 6.76674 c -0.0593,-1.879254 -1.36478,-2.848443 -3.28557,-2.848443 z m 0.0396,8.764236 c -3.02845,0 -5.14264,-1.977936 -5.14264,-5.161985 0,-2.94734 2.11419,-5.065924 5.06352,-5.065924 2.76911,0 4.92506,1.523011 4.92506,4.847691 0,0.257577 -0.0176,0.532296 -0.0374,0.811399 h -8.32931 c 0.17802,1.896396 1.70103,3.065587 3.56029,3.065587 1.08786,0 2.47461,-0.415597 3.10755,-1.206112 l 1.10764,0.969188 h -0.0198 c -1.03071,1.186334 -2.70977,1.740156 -4.23497,1.740156"/>
<path style="fill:#171a1e;fill-opacity:1;fill-rule:nonzero;stroke:none;stroke-width:0.21977068" d="m 128.87371,69.833361 c -1.70323,0 -3.16691,0.951157 -3.48117,2.848443 h 6.76674 c -0.0615,-1.879254 -1.36478,-2.848443 -3.28557,-2.848443 z m 0.0396,8.764236 c -3.02845,0 -5.14484,-1.977936 -5.14484,-5.161985 0,-2.94734 2.11639,-5.065924 5.06572,-5.065924 2.76911,0 4.92506,1.523011 4.92506,4.847691 0,0.257577 -0.0198,0.532296 -0.0374,0.811399 h -8.32931 c 0.17802,1.896396 1.70103,3.065587 3.56029,3.065587 1.08786,0 2.47461,-0.415597 3.10755,-1.206112 l 1.10765,0.969188 h -0.0198 c -1.03072,1.186334 -2.70978,1.740156 -4.23498,1.740156"/>
<path style="fill:#171a1e;fill-opacity:1;fill-rule:nonzero;stroke:none;stroke-width:0.21977068" d="m 140.18751,68.369688 c 0.83073,0 1.6219,0.356243 2.21529,0.771824 l -0.73184,1.383682 c -0.53404,-0.375149 -1.00875,-0.553608 -1.70323,-0.553608 -1.56037,0 -2.8658,1.147862 -2.8658,2.927346 v 5.461741 h -1.62412 v -9.753204 h 1.50323 l 0.1406,1.425878 c 0.73184,-1.287636 1.95595,-1.663659 3.0658,-1.663659"/>
<path style="fill:#171a1e;fill-opacity:1;fill-rule:nonzero;stroke:none;stroke-width:0.21977068" d="m 145.07301,68.607469 v 9.753204 h -1.62412 v -9.753204 z m -0.79338,-4.055428 c 0.51647,0 1.08786,0.356259 1.08786,1.067871 0,0.712502 -0.57139,1.0294 -1.08786,1.0294 -0.55383,0 -1.06588,-0.3391 -1.06588,-1.050943 0,-0.690069 0.51205,-1.046328 1.06588,-1.046328"/>
<path style="fill:#171a1e;fill-opacity:1;fill-rule:nonzero;stroke:none;stroke-width:0.21977068" d="m 149.24425,68.607469 0.0791,1.524561 c 0.8725,-1.26522 1.98015,-1.762342 3.30537,-1.762342 2.43505,0 4.15585,1.621677 4.15585,4.568802 v 5.422183 h -1.64387 v -5.39998 c 0,-1.96058 -0.94941,-3.067994 -2.82845,-3.067994 -1.78236,0 -2.94713,1.483453 -2.94713,3.226014 v 5.24196 h -1.60434 v -9.753204 h 1.48346"/>
<path style="fill:#171a1e;fill-opacity:1;fill-rule:nonzero;stroke:none;stroke-width:0.21977068" d="m 163.68318,76.619661 c 2.07904,0 3.52293,-1.504996 3.52293,-3.402282 0,-2.217266 -1.70102,-3.364238 -3.5405,-3.364238 -1.7428,0 -3.58228,1.067854 -3.58228,3.342926 0.0593,2.258589 1.64169,3.423594 3.59985,3.423594 z m -0.0396,5.89425 c 1.68345,0 3.44382,-0.59053 3.44382,-2.311779 0,-1.584756 -1.60213,-2.175499 -3.42183,-2.175499 -3.06801,0 -5.16462,-1.760595 -5.16462,-4.830566 0,-3.224481 2.67021,-4.826379 5.16462,-4.826379 0.90985,0 2.03506,0.237781 2.7669,0.753808 l 1.05051,-1.30763 1.16698,0.951157 -1.12742,1.283466 c 0.79118,0.870506 1.26588,1.72125 1.26588,3.145578 0,1.643879 -0.83073,3.34469 -2.74933,3.979822 1.9186,0.553822 2.68999,1.582135 2.68999,3.003826 0,2.652643 -2.51198,3.820285 -5.10528,3.820285 -2.94713,0 -5.08329,-1.562355 -5.00418,-4.19367 h 1.54279 c 0,1.897286 1.70102,2.707581 3.48117,2.707581"/>
<path style="fill:#171a1e;fill-opacity:1;fill-rule:nonzero;stroke:none;stroke-width:0.21977068" d="m 176.63866,74.4048 c 0,1.661038 1.38455,2.613085 3.56028,2.613085 1.28566,0 3.44382,-0.637786 3.44382,-2.534181 V 71.95216 h -3.48337 c -2.35594,0 -3.52073,1.304778 -3.52073,2.45264 z m 3.59984,-8.608852 c -2.35593,0 -3.3449,1.208734 -3.3449,2.417483 0,1.837058 2.05924,2.351322 3.38446,2.351322 h 6.15359 v 1.406972 h -1.20875 v 2.551537 c 0,1.246545 0.31868,2.296384 1.50544,2.296384 v 1.562356 c -1.12742,0.0773 -2.09661,-0.377572 -2.47242,-1.703234 -0.9714,1.56346 -2.57352,1.862128 -4.01742,1.862128 -3.22403,0 -5.28328,-1.228529 -5.28328,-4.116316 0,-1.48609 1.1494,-2.652841 2.4922,-3.147325 -1.36478,-0.393181 -2.23288,-1.698833 -2.23288,-3.006249 0,-2.531759 2.19551,-3.896749 5.06352,-3.896749 2.33617,0 4.72948,0.731392 4.72948,3.619393 h -1.62412 v -0.02159 c 0,-1.758171 -1.48124,-2.176175 -3.14492,-2.176175"/>
<path style="fill:#171a1e;fill-opacity:1;fill-rule:nonzero;stroke:none;stroke-width:0.21977068" d="m 191.43143,64.512482 h 11.16215 v 1.541043 h -4.72946 v 12.307148 h -1.68124 V 66.053525 h -4.75145 v -1.541043"/>
<path style="fill:#171a1e;fill-opacity:1;fill-rule:nonzero;stroke:none;stroke-width:0.21977068" d="m 206.01101,69.833361 c -1.70102,0 -3.1647,0.951157 -3.48117,2.848443 h 6.76675 c -0.0593,-1.879254 -1.36477,-2.848443 -3.28558,-2.848443 z m 0.0417,8.764236 c -3.02845,0 -5.14484,-1.977936 -5.14484,-5.161985 0,-2.94734 2.11639,-5.065924 5.06573,-5.065924 2.7669,0 4.92506,1.523011 4.92506,4.847691 0,0.257577 -0.0198,0.532296 -0.0396,0.811399 h -8.32932 c 0.17801,1.896396 1.70323,3.065587 3.56028,3.065587 1.08787,0 2.47463,-0.415597 3.10757,-1.206112 l 1.10765,0.969188 h -0.0176 c -1.03072,1.186334 -2.71197,1.740156 -4.23498,1.740156"/>
<path style="fill:#171a1e;fill-opacity:1;fill-rule:nonzero;stroke:none;stroke-width:0.21977068" d="m 217.10723,78.597597 c -2.78889,0 -5.10307,-1.876633 -5.10307,-5.122641 0,-3.24403 2.25485,-5.105268 5.10307,-5.105268 1.345,0 2.49441,0.454926 3.54051,1.463673 l -1.0461,1.067855 c -0.6747,-0.691833 -1.58455,-0.988968 -2.45264,-0.988968 -1.94058,0 -3.52293,1.345227 -3.52293,3.562708 0,2.294851 1.60433,3.57985 3.50315,3.57985 0.92963,0 1.85926,-0.3167 2.55154,-1.030076 l 1.06809,1.089415 -0.0198,-0.01978 c -1.02853,1.048306 -2.27684,1.503232 -3.62184,1.503232"/>
<path style="fill:#171a1e;fill-opacity:1;fill-rule:nonzero;stroke:none;stroke-width:0.21977068" d="m 227.33316,68.369688 c 2.74934,0 3.99764,1.839695 3.99764,4.529244 v 5.461741 h -1.62411 v -5.461741 c 0,-1.898819 -0.84831,-2.986684 -2.63066,-2.986684 -1.8197,0 -2.92734,1.486089 -2.92734,3.26404 v 5.184385 h -1.62191 V 64.512482 h 1.58235 v 5.696901 c 0.87029,-1.286103 1.95816,-1.819915 3.22403,-1.839695"/>
<path style="fill:#171a1e;fill-opacity:1;fill-rule:nonzero;stroke:none;stroke-width:0.21977068" d="m 235.4427,68.607469 0.0791,1.524561 c 0.87029,-1.26522 1.97794,-1.762342 3.30536,-1.762342 2.43286,0 4.15586,1.621677 4.15586,4.568802 v 5.422183 h -1.64609 v -5.39998 c 0,-1.96058 -0.9472,-3.067994 -2.82845,-3.067994 -1.78014,0 -2.94491,1.483453 -2.94491,3.226014 v 5.24196 h -1.60434 v -9.753204 h 1.48345"/>
<path style="fill:#171a1e;fill-opacity:1;fill-rule:nonzero;stroke:none;stroke-width:0.21977068" d="m 249.74318,69.875326 c -1.98013,0 -3.48117,1.463904 -3.48117,3.616772 0,2.118815 1.48126,3.585125 3.46139,3.585125 2.0175,0 3.48338,-1.46631 3.48338,-3.585125 0,-2.152868 -1.50544,-3.616772 -3.4636,-3.616772 z m -0.0198,-1.505638 c 2.96691,0 5.10529,2.096382 5.10529,5.12241 0,3.02888 -2.17573,5.105499 -5.10529,5.105499 -2.92734,0 -5.06571,-2.076619 -5.06571,-5.105499 0,-3.026028 2.15815,-5.12241 5.06571,-5.12241"/>
<path style="fill:#171a1e;fill-opacity:1;fill-rule:nonzero;stroke:none;stroke-width:0.21977068" d="m 256.78244,78.360673 h 1.60193 V 64.512548 h -1.60193 z"/>
<path style="fill:#171a1e;fill-opacity:1;fill-rule:nonzero;stroke:none;stroke-width:0.21977068" d="m 265.4458,69.875326 c -1.97793,0 -3.48116,1.463904 -3.48116,3.616772 0,2.118815 1.48345,3.585125 3.46138,3.585125 2.0175,0 3.48336,-1.46631 3.48336,-3.585125 0,-2.152868 -1.50323,-3.616772 -3.46358,-3.616772 z m -0.0198,-1.505638 c 2.9691,0 5.10748,2.096382 5.10748,5.12241 0,3.02888 -2.17794,5.105499 -5.10748,5.105499 -2.92734,0 -5.06351,-2.076619 -5.06351,-5.105499 0,-3.026028 2.15595,-5.12241 5.06351,-5.12241"/>
<path style="fill:#171a1e;fill-opacity:1;fill-rule:nonzero;stroke:none;stroke-width:0.21977068" d="m 276.95739,76.619661 c 2.07903,0 3.52292,-1.504996 3.52292,-3.402282 0,-2.217266 -1.70102,-3.364238 -3.5405,-3.364238 -1.74278,0 -3.58226,1.067854 -3.58226,3.342926 0.0593,2.258589 1.64169,3.423594 3.59984,3.423594 z m -0.0396,5.89425 c 1.68344,0 3.44381,-0.59053 3.44381,-2.311779 0,-1.584756 -1.60213,-2.175499 -3.42183,-2.175499 -3.068,0 -5.16461,-1.760595 -5.16461,-4.830566 0,-3.224481 2.67021,-4.826379 5.16461,-4.826379 0.90985,0 2.03508,0.237781 2.76691,0.753808 l 1.0505,-1.30763 1.16699,0.951157 -1.12743,1.283466 c 0.79118,0.870506 1.26588,1.72125 1.26588,3.145578 0,1.643879 -0.83073,3.34469 -2.74933,3.979822 1.9186,0.553822 2.68999,1.582135 2.68999,3.003826 0,2.652643 -2.51198,3.820285 -5.10526,3.820285 -2.94713,0 -5.0833,-1.562355 -5.00418,-4.19367 h 1.54279 c 0,1.897286 1.70102,2.707581 3.48116,2.707581"/>
<path style="fill:#171a1e;fill-opacity:1;fill-rule:nonzero;stroke:none;stroke-width:0.21977068" d="m 284.73287,82.991253 2.05487,-4.768805 -3.95588,-9.635632 h 1.85926 l 1.9186,5.064176 1.08787,2.812412 1.03072,-2.790868 2.15595,-5.08572 h 1.78014 l -6.15357,14.404437 h -1.77796"/>
</g>
</svg>
