<?xml version="1.0" encoding="UTF-8" standalone="no"?>
<svg
   xmlns:dc="http://purl.org/dc/elements/1.1/"
   xmlns:cc="http://creativecommons.org/ns#"
   xmlns:rdf="http://www.w3.org/1999/02/22-rdf-syntax-ns#"
   xmlns:svg="http://www.w3.org/2000/svg"
   xmlns="http://www.w3.org/2000/svg"
   viewBox="0 0 167.639 80"
   height="80"
   width="167.639"
   xml:space="preserve"
>
<g>
	<rect x="0" y="0" width="3" height="3" style="fill:#0000ff" />
	<path style="fill:#6f0732;fill-opacity:1;fill-rule:nonzero;stroke:none" d="M 0,80 h 167.63911 V 0 H 0 Z"/>
	<path style="fill:#ffffff;fill-opacity:1;fill-rule:nonzero;stroke:none" d="M 33.897859,19.484864 H 22.68965 c -2.52863,0 -3.212474,1.026632 -4.784029,2.873141 -2.050573,2.390478 -3.415187,5.262855 -5.532435,7.790913 L 11.483747,29.672206 14.35305,16.95757 c 1.911652,0.548003 3.896319,1.092157 5.946123,1.092157 h 34.02986 c 2.049804,0 4.030629,-0.544154 5.948237,-1.092157 l 2.526324,12.780725 -0.956883,0.478066 C 60.139118,27.62086 58.768547,24.748483 56.718934,22.358005 55.147188,20.511496 54.463343,19.484864 51.938556,19.484864 H 40.797021 v 40.45922 c 0,2.935411 1.370572,3.616181 6.356546,3.825615 v 1.435136 H 27.680236 v -1.435136 c 4.715048,-0.209434 6.217623,-0.890204 6.217623,-3.825615 v -40.45922"/>
	<path style="fill:#ffffff;fill-opacity:1;fill-rule:nonzero;stroke:none" d="m 69.088277,49.96753 h 1.367497 c 0.88867,7.243674 4.51003,13.802169 13.055299,13.802169 9.085582,0 10.997232,-6.494698 10.997232,-9.908924 0,-6.900696 -6.284488,-7.721165 -11.410727,-9.637236 C 75.242876,41.624968 70.52706,39.234491 70.52706,30.214056 c 0,-8.332763 6.558488,-13.731469 14.623972,-13.731469 3.824264,0 8.133883,1.298334 10.998773,3.896127 l 2.0498,-1.779644 h 0.957082 v 14.009296 h -1.227232 c -0.96073,-3.414226 -1.98525,-8.268965 -4.37438,-10.933436 -1.98371,-2.25405 -4.44547,-3.760276 -7.519023,-3.760276 -6.420337,0 -9.975021,4.306736 -9.975021,10.526661 0,5.945931 4.507916,7.379526 9.292715,8.815426 7.449269,2.255404 15.100684,5.325312 15.100684,14.487363 0,9.70256 -7.516905,13.463037 -16.264124,13.463037 -4.165705,0 -8.196141,-1.230315 -11.683384,-3.485705 l -2.596071,2.528621 H 69.088277 V 49.96753"/>
	<path style="fill:#ffffff;fill-opacity:1;fill-rule:nonzero;stroke:none" d="m 109.61207,17.096491 h 17.84241 v 1.433594 c -5.12778,-0.06384 -6.01646,1.576177 -6.01646,5.261515 v 27.404703 c 0,4.854537 1.77427,12.573396 13.11988,12.573396 11.34174,0 13.94031,-7.174704 13.94031,-15.169661 V 23.7916 c 0,-4.713699 -2.3899,-4.986166 -7.10937,-5.261515 v -1.433594 h 14.76655 v 1.433594 c -3.62597,0 -5.81317,1.435137 -5.81317,5.261515 v 24.808438 c 0,9.495418 -3.62289,16.607103 -17.90177,16.607103 -13.87423,0 -17.90543,-7.378949 -17.90543,-15.852751 V 23.7916 c 0,-4.50869 -0.47883,-5.055151 -4.92295,-5.261515 v -1.433594"/>
	<path style="fill:#ffffff;fill-opacity:1;fill-rule:nonzero;stroke:none" d="M 7.7128977,71.743716 H 159.92624 V 8.2568544 H 7.7128977 Z M 160.74861,72.567831 H 6.8901317 V 7.4344829 H 160.74861 V 72.567831"/>
</g>
</svg>
